<?xml version="1.0" encoding="UTF-8"?>
<svg width="50px" height="40px" viewBox="0 0 50 40" version="1.1" xmlns="http://www.w3.org/2000/svg" xmlns:xlink="http://www.w3.org/1999/xlink">
    <!-- Generator: Sketch 53.2 (72643) - https://sketchapp.com -->
    <title>Combined Shape</title>
    <desc>Created with Sketch.</desc>
    <g id="Page-1" stroke="none" stroke-width="1" fill="none" fill-rule="evenodd">
        <g id="Custom-Preset-Copy-3" transform="translate(-42.000000, -159.000000)" fill="#FFFFFF" fill-rule="nonzero">
            <path d="M66.9996716,167 L84.9684775,181.812717 C84.9886169,181.853543 85,181.916368 85,181.999552 L85,196.998994 C85,197.540673 84.8013426,198.010333 84.4054508,198.405127 C84.0102156,198.801454 83.5408807,199 82.9993068,199 L71.000073,199 L71.000073,186.999658 L62.9993798,186.999658 L62.9993798,198.999562 L51.0000365,198.999562 C50.4583531,198.999562 49.9896749,198.800578 49.5938925,198.405127 C49.1980007,198.009895 49,197.540564 49,196.998994 L49,181.999552 C49,181.978099 49.0054727,181.94789 49.0157612,181.906299 C49.0262687,181.864378 49.0315225,181.833622 49.0315225,181.812717 L66.9996716,167 Z M91.6551137,178.036661 C91.8613933,178.199137 91.975124,178.417407 91.996306,178.690832 C92.0178138,178.96511 91.9453607,179.20397 91.7800328,179.407304 L89.8570377,181.66095 C89.6905149,181.843162 89.4741332,181.955604 89.2057199,181.995716 L89.1125193,181.995716 C88.8436714,181.995716 88.6269638,181.924986 88.4612015,181.783313 L67.0000842,164.208508 L45.5391842,181.78342 C45.2909752,181.945789 45.0427662,182.017052 44.7945572,181.996569 C44.5257094,181.95571 44.3088931,181.844015 44.1432394,181.661376 L42.2204615,179.407411 C42.0548077,179.204503 41.9825719,178.965217 42.0035366,178.691259 C42.0246099,178.417087 42.1379062,178.198817 42.3446203,178.036661 L64.6437824,159.791896 C65.305311,159.26393 66.0909984,159 67.000736,159 C67.9105822,159 68.6963782,159.26393 69.3572551,159.791896 L76.9243166,166.005556 L76.9243166,160.066281 C76.9243166,159.782295 77.0171913,159.548556 77.2030493,159.365704 C77.3893419,159.183065 77.6271228,159.091746 77.9167181,159.091746 L83.8711272,159.091746 C84.1610484,159.091746 84.398938,159.183065 84.5840356,159.365704 C84.770654,159.548556 84.8636374,159.782188 84.8636374,160.066281 L84.8636374,172.493281 L91.6551137,178.036661 Z" id="Combined-Shape"></path>
        </g>
    </g>
</svg>