<?xml version="1.0" encoding="UTF-8"?>
<svg width="47px" height="47px" viewBox="0 0 47 47" version="1.1" xmlns="http://www.w3.org/2000/svg" xmlns:xlink="http://www.w3.org/1999/xlink">
    <!-- Generator: Sketch 53.2 (72643) - https://sketchapp.com -->
    <title>Combined Shape</title>
    <desc>Created with Sketch.</desc>
    <g id="Page-1" stroke="none" stroke-width="1" fill="none" fill-rule="evenodd">
        <g id="Table" transform="translate(-636.000000, -521.000000)" fill="#FFFFFF" fill-rule="nonzero">
            <path d="M680.845,563.718 C682.023,563.718 682.979,564.674 682.98,565.855 C682.98,567.034 682.024,567.99 680.844,567.99 L638.136,567.99 C636.956,567.99 636,567.034 636,565.855 C636,564.674 636.956,563.718 638.136,563.718 L680.845,563.718 Z M640.805,558.165 L640.805,558.164 L641.339,558.164 L641.339,538.945 L640.805,538.945 C640.216,538.945 639.738,538.467 639.738,537.878 C639.738,537.289 640.215,536.811 640.805,536.811 L678.175,536.811 C678.764,536.811 679.242,537.289 679.242,537.878 C679.242,538.467 678.766,538.945 678.175,538.945 L677.642,538.945 L677.642,558.165 L678.175,558.165 C679.355,558.165 680.311,559.121 680.311,560.301 C680.311,561.481 679.355,562.438 678.175,562.438 L640.805,562.438 C639.625,562.438 638.669,561.481 638.669,560.301 C638.669,559.121 639.625,558.165 640.805,558.165 Z M673.37,538.945 L666.964,538.945 L666.964,558.164 L673.37,558.164 L673.37,538.945 Z M662.692,538.945 L656.286,538.945 L656.286,558.164 L662.692,558.164 L662.692,538.945 Z M645.609,538.945 L645.609,558.164 L652.015,558.164 L652.015,538.945 L645.609,538.945 Z M638.136,534.891 C637.129,534.891 636.259,534.188 636.048,533.204 C635.836,532.22 636.341,531.222 637.26,530.808 L658.616,521.199 C659.174,520.949 659.811,520.949 660.368,521.199 L681.558,530.734 C682.397,531.022 683.001,531.817 683.001,532.755 C683.001,533.935 682.046,534.891 680.865,534.891 C680.859,534.891 680.851,534.891 680.844,534.891 L638.136,534.891 Z" id="Combined-Shape"></path>
        </g>
    </g>
</svg>