<svg width="500" height="500" viewBox="0 0 500 500" fill="none" xmlns="http://www.w3.org/2000/svg">
<g clip-path="url(#clip0)">
<path d="M412.875 189.202C449.396 189.202 478.765 159.744 478.765 123.401C478.765 87.0354 449.374 57.5339 412.875 57.5339C376.576 57.5339 347.163 87.0137 347.163 123.401C347.163 159.721 376.576 189.202 412.875 189.202Z" fill="white"/>
<path d="M465.706 199.92H360.176C344.512 199.92 331.32 212.019 327.265 228.286L264.606 356.567C263.715 356.5 262.957 356.055 262.043 356.055H237.89C236.998 356.055 236.218 356.523 235.371 356.567L172.712 228.309C168.68 212.042 155.51 199.921 139.824 199.921H34.2264C15.3524 199.92 0 217.234 0 238.469V442.466H174.072V326.664L212.086 396.943C215.763 409.154 225.813 417.999 237.912 417.999H262.067C274.167 417.999 284.238 409.153 287.937 396.943L325.929 326.664V442.466H500.001V238.468C499.977 217.234 484.602 199.92 465.706 199.92Z" fill="white"/>
<path d="M87.0809 189.202C123.379 189.202 152.792 159.744 152.792 123.401C152.815 87.0137 123.401 57.5339 87.0809 57.5339C50.6046 57.5339 21.191 87.0137 21.191 123.401C21.191 159.721 50.6036 189.202 87.0809 189.202Z" fill="white"/>
</g>
<defs>
<clipPath id="clip0">
<rect width="500" height="500" fill="white"/>
</clipPath>
</defs>
</svg>
