<?xml version="1.0" encoding="UTF-8"?>
<svg width="37px" height="49px" viewBox="0 0 37 49" version="1.1" xmlns="http://www.w3.org/2000/svg" xmlns:xlink="http://www.w3.org/1999/xlink">
    <!-- Generator: Sketch 53.2 (72643) - https://sketchapp.com -->
    <title>Combined Shape</title>
    <desc>Created with Sketch.</desc>
    <g id="Page-1" stroke="none" stroke-width="1" fill="none" fill-rule="evenodd">
        <g id="Custom-Preset-Copy-3" transform="translate(-48.000000, -243.000000)" fill="#FFFFFF" fill-rule="nonzero">
            <path d="M66.0011047,267 C60.4782845,267 56.0009628,261.62747 56.0009628,255.00007 C56.0009628,248.37253 57.4712171,243 66.0011047,243 C74.5309923,243 76.0009628,248.37253 76.0009628,255.00007 C76.0009628,261.62747 71.523641,267 66.0011047,267 Z M48.0019255,285.103677 C48.000258,284.700197 47.9985904,284.989997 48.0019255,285.103677 Z M84.9995618,286.209402 C85.0013683,285.33369 85.0048423,286.08318 84.9995618,286.209402 Z M84.9802509,284.810449 C84.9917884,285.54427 84.9979046,285.671195 85.0009628,285.605712 C85.0005457,285.800209 85.0002677,286.086102 85.0002677,286.497248 C85.0002677,286.497248 82.2765887,292 66.5013798,292 C50.7258929,292 48.0024918,286.497248 48.0024918,286.497248 C48.0024918,285.857332 48.0016578,285.490352 48.0009628,285.291954 C48.0040209,285.39784 48.0119442,285.349913 48.0290419,284.437757 C48.2375506,273.267154 49.8233284,270.046674 61.1377031,268 C61.1377031,268 62.748224,270.056566 66.5013798,270.056566 C70.2545356,270.056566 71.8647784,268 71.8647784,268 C83.3039803,270.069244 84.7988484,273.33821 84.9802509,284.810449 Z" id="Combined-Shape"></path>
        </g>
    </g>
</svg>