<svg height="512pt" viewBox="0 0 512 511" width="512pt" xmlns="http://www.w3.org/2000/svg"><path d="m512 256.273438c0-141.257813-114.613281-255.773438-256-255.773438s-256 114.515625-256 255.773438c0 141.261718 114.613281 255.773437 256 255.773437s256-114.511719 256-255.773437zm0 0" fill="#e5554e"/><path d="m256 .5c-6.730469 0-13.398438.261719-20 .773438 132.035156 10.195312 236 120.464843 236 255 0 134.535156-103.964844 244.804687-236 255 6.601562.511718 13.269531.773437 20 .773437 141.386719 0 256-114.511719 256-255.773437 0-141.257813-114.613281-255.773438-256-255.773438zm0 0" fill="#c62430"/><path d="m418.5625 299.234375h-325.125c-23.4375 0-42.4375-19-42.4375-42.4375v-.046875c0-23.4375 19-42.4375 42.4375-42.4375h325.125c23.4375 0 42.4375 19 42.4375 42.4375v.046875c0 23.4375-19 42.4375-42.4375 42.4375zm0 0" fill="#fff"/><path d="m418.542969 214.3125h-40c23.449219 0 42.457031 18.992188 42.457031 42.417969v.085937c0 23.425782-19.007812 42.417969-42.457031 42.417969h40c23.449219 0 42.457031-18.992187 42.457031-42.417969v-.085937c0-23.425781-19.007812-42.417969-42.457031-42.417969zm0 0" fill="#e6e6e6"/></svg>