<?xml version="1.0" encoding="UTF-8"?>
<svg width="36px" height="45px" viewBox="0 0 36 45" version="1.1" xmlns="http://www.w3.org/2000/svg" xmlns:xlink="http://www.w3.org/1999/xlink">
    <!-- Generator: Sketch 53.2 (72643) - https://sketchapp.com -->
    <title>Path</title>
    <desc>Created with Sketch.</desc>
    <g id="Page-1" stroke="none" stroke-width="1" fill="none" fill-rule="evenodd">
        <g id="Custom-Preset-Copy-3" transform="translate(-50.000000, -501.000000)" fill="#FFFFFF" fill-rule="nonzero">
            <path d="M85.8028322,527.49225 L78.6230737,516 L85.8710537,504.3975 C86.0157434,504.16575 86.0232403,503.87475 85.8912953,503.63625 C85.7586006,503.39775 85.5082049,503.25 85.2353186,503.25 L51.4993753,503.25 L51.4993753,501.75 C51.4993753,501.33525 51.1642649,501 50.7496876,501 C50.3351104,501 50,501.33525 50,501.75 L50,504 L50,525.75 L50,528 L50,545.25 C50,545.66475 50.3351104,546 50.7496876,546 C51.1642649,546 51.4993753,545.66475 51.4993753,545.25 L51.4993753,528.75 L85.2353186,528.75 C85.2413161,528.75075 85.2473136,528.75 85.2503124,528.75 C85.6648896,528.75 86,528.41475 86,528 C86,527.80425 85.9250312,527.6265 85.8028322,527.49225 Z" id="Path"></path>
        </g>
    </g>
</svg>