<?xml version="1.0" encoding="UTF-8"?>
<svg width="45px" height="36px" viewBox="0 0 45 36" version="1.1" xmlns="http://www.w3.org/2000/svg" xmlns:xlink="http://www.w3.org/1999/xlink">
    <!-- Generator: Sketch 53.2 (72643) - https://sketchapp.com -->
    <title>Combined Shape</title>
    <desc>Created with Sketch.</desc>
    <g id="Page-1" stroke="none" stroke-width="1" fill="none" fill-rule="evenodd">
        <g id="Custom-Preset-Copy-3" transform="translate(-46.000000, -338.000000)" fill="#FFFFFF" fill-rule="nonzero">
            <path d="M87.7138158,338 C89.4989035,338 91,339.480106 91,341.330239 L91,360.48939 C91,362.298408 89.5394737,363.819629 87.7138158,363.819629 L84.7927632,363.819629 L84.7927632,367.931034 C84.7927632,368.547745 84.3059211,369 83.7379386,369 C83.4539474,369 83.2105263,368.876658 83.0076754,368.671088 L78.2609649,363.819629 L57.2861842,363.819629 C55.5010965,363.819629 54,362.339523 54,360.48939 L54,341.330239 C54,339.52122 55.4605263,338 57.2861842,338 L87.7138158,338 Z M61.9517544,354.486737 C63.6557018,354.486737 64.9945175,353.088859 64.9945175,351.403183 C64.9945175,349.717507 63.6151316,348.319629 61.9517544,348.319629 C60.2883772,348.319629 58.9089912,349.717507 58.9089912,351.403183 C58.9089912,353.088859 60.2883772,354.486737 61.9517544,354.486737 Z M72.6217105,354.486737 C74.2850877,354.486737 75.6644737,353.088859 75.6644737,351.403183 C75.6644737,349.717507 74.2850877,348.319629 72.6217105,348.319629 C70.9583333,348.319629 69.5789474,349.717507 69.5789474,351.403183 C69.5789474,353.088859 70.9583333,354.486737 72.6217105,354.486737 Z M83.2510965,354.486737 C84.9144737,354.486737 86.2938596,353.088859 86.2938596,351.403183 C86.2938596,349.717507 84.9144737,348.319629 83.2510965,348.319629 C81.5877193,348.319629 80.2083333,349.717507 80.2083333,351.403183 C80.2083333,353.088859 81.5877193,354.486737 83.2510965,354.486737 Z M51.6353655,360.39839 C51.6353655,363.215292 54.0142107,365.509054 56.9355995,365.509054 L71,365.509054 L71,368.567404 C71,369.734406 69.998381,370.700201 68.7880913,370.700201 L54.5984884,370.700201 L51.3849607,373.798793 C51.2597583,373.919517 51.0928218,374 50.8841512,374 C50.5085441,374 50.1746711,373.678068 50.1746711,373.315895 L50.1746711,370.65996 L48.2131671,370.65996 C46.9611433,370.65996 45.9595243,369.694165 46.0012584,368.44668 L46.0012584,356.132797 C46.0012584,354.965795 47.0028775,354 48.2131671,354 L51.6353655,354 L51.6353655,360.39839 Z" id="Combined-Shape"></path>
        </g>
    </g>
</svg>