<svg width="683" height="683" viewBox="0 0 683 683" fill="none" xmlns="http://www.w3.org/2000/svg">
<path d="M359.75 21V286H434.75V232.375L599.75 342.25L434.75 452.125V398.5H359.75V548.5H661V21H359.75ZM528.5 136H453.5V98.5H528.5V136Z" fill="white"/>
<path d="M359.75 586H661V661H359.75V586Z" fill="white"/>
<path d="M21 586H322.25V661H21V586Z" fill="white"/>
<path d="M284.75 286H322.25V21H21V548.5H322.25V398.5H284.75V286ZM153.5 98.5H228.5V136H153.5V98.5ZM191 323.5C222.129 323.5 247.25 348.621 247.25 379.75C247.25 404.125 231.504 425.125 209.75 432.625V471H172.25V432.625C150.496 425.125 134.75 404.125 134.75 379.75H172.25C172.25 390.254 180.496 398.5 191 398.5C201.504 398.5 209.75 390.254 209.75 379.75C209.75 369.246 201.504 361 191 361C159.871 361 134.75 335.879 134.75 304.75C134.75 280.375 150.496 259.375 172.25 251.875V211H209.75V251.875C231.504 259.375 247.25 280.375 247.25 304.75H209.75C209.75 294.246 201.504 286 191 286C180.496 286 172.25 294.246 172.25 304.75C172.25 315.254 180.496 323.5 191 323.5Z" fill="white"/>
<path d="M472.25 361V382.375L532.25 342.25L472.25 302.125V323.5C418.821 323.5 318.399 323.5 322.25 323.5V361C329.266 361 481.996 361 472.25 361Z" fill="white"/>
</svg>
