<?xml version="1.0" encoding="UTF-8"?>
<svg width="37px" height="48px" viewBox="0 0 37 48" version="1.1" xmlns="http://www.w3.org/2000/svg" xmlns:xlink="http://www.w3.org/1999/xlink">
    <!-- Generator: Sketch 53.2 (72643) - https://sketchapp.com -->
    <title>Shape</title>
    <desc>Created with Sketch.</desc>
    <g id="Page-1" stroke="none" stroke-width="1" fill="none" fill-rule="evenodd">
        <g id="Custom-Preset-Copy-3" transform="translate(-48.000000, -672.000000)" fill="#FFFFFF" fill-rule="nonzero">
            <path d="M83.8646926,677.609338 L66.9928528,672.077212 C66.6723463,671.974263 66.3276537,671.974263 66.006987,672.077212 L49.1353074,677.609338 C48.4592165,677.825904 48,678.459278 48,679.175077 L48,700.942853 C48,705.488149 50.7429654,710.07886 56.916039,714.58747 C61.3161558,717.801372 65.6522035,719.774222 65.8348009,719.856646 C66.0463896,719.952323 66.2731948,720 66.5,720 C66.7268052,720 66.9536104,719.952162 67.1651991,719.856646 C67.3477965,719.774222 71.6838442,717.801372 76.083961,714.58747 C82.2570346,710.07886 85,705.488149 85,700.942853 L85,679.175077 C85,678.459278 84.5407835,677.825904 83.8646926,677.609338 Z M65.8399644,693.971796 L68.1597305,693.971796 C70.7833482,693.971796 73,696.242681 73,698.930661 C73,701.483651 70.9996441,703.658799 68.5505275,703.870538 L68.5505275,706.378053 C68.5505275,707.273834 67.8563366,708 67,708 C66.1436634,708 65.4494725,707.273834 65.4494725,706.378053 L65.4494725,703.888887 L62.5505275,703.888887 C61.6941909,703.888887 61,703.162721 61,702.266941 C61,701.37116 61.6941909,700.644994 62.5505275,700.644994 L68.1597305,700.644994 C69.0699123,700.644994 69.898945,699.827877 69.898945,698.930661 C69.898945,698.033285 69.0699123,697.215689 68.1597305,697.215689 L65.8399644,697.215689 C63.2164993,697.215689 61,694.944964 61,692.256984 C61,689.703674 63.0003559,687.528526 65.4494725,687.316947 L65.4494725,684.621947 C65.4494725,683.726166 66.1436634,683 67,683 C67.8563366,683 68.5505275,683.726166 68.5505275,684.621947 L68.5505275,687.298598 L71.4494725,687.298598 C72.3058091,687.298598 73,688.024764 73,688.920545 C73,689.816325 72.3058091,690.542491 71.4494725,690.542491 L65.8399644,690.542491 C64.9299352,690.542491 64.101055,691.359608 64.101055,692.256984 C64.101055,693.15452 64.9299352,693.971796 65.8399644,693.971796 Z" id="Shape"></path>
        </g>
    </g>
</svg>