<?xml version="1.0" encoding="UTF-8"?>
<svg width="45px" height="45px" viewBox="0 0 45 45" version="1.1" xmlns="http://www.w3.org/2000/svg" xmlns:xlink="http://www.w3.org/1999/xlink">
    <!-- Generator: Sketch 53.2 (72643) - https://sketchapp.com -->
    <title>Combined Shape</title>
    <desc>Created with Sketch.</desc>
    <g id="Page-1" stroke="none" stroke-width="1" fill="none" fill-rule="evenodd">
        <g id="Custom-Preset-Copy-3" transform="translate(-46.000000, -418.000000)" fill="#FFFFFF" fill-rule="nonzero">
            <path d="M90.9725355,418.729656 C90.9840636,418.862677 91.4675258,425.820633 87.8516465,434 L75,421.148613 C83.1795896,417.532832 90.136924,418.016281 90.2699482,418.027088 C90.6443432,418.05861 90.9410132,418.355361 90.9725355,418.729656 Z M87,435.22752 C84.537324,440.190133 80.4500734,445.47265 73.7301504,449.818692 L74.1201112,455.673052 C74.1416883,455.99811 73.9508137,456.29862 73.6481223,456.417165 L62.0916019,460.939058 C62.0028474,460.974089 61.9111228,460.990512 61.8201843,460.990512 C61.5927945,460.990512 61.3705588,460.885421 61.2266821,460.696029 C61.0246258,460.430637 61.023927,460.063036 61.223712,459.796857 L64.0382612,456.044322 L63.6453303,454.079736 L60.5616347,450.996011 L59.1710889,451.837003 C59.6967149,452.845023 59.8398927,454.023827 59.5475968,455.175026 C59.168905,456.668493 58.1496257,457.888966 56.7524408,458.524231 L47.0546987,462.932909 C46.9555487,462.978423 46.8504585,463 46.7460671,463 C46.5522223,463 46.3613477,462.924698 46.2181698,462.781519 C45.9982054,462.561552 45.9385407,462.228283 46.0667805,461.945681 L50.474718,452.247846 C51.1098894,450.849862 52.331225,449.83066 53.8245898,449.451878 C54.9407478,449.169276 56.0814531,449.294547 57.0678862,449.779906 L57.8820518,448.317102 L54.9198695,445.354891 L52.956001,444.961957 L49.2027154,447.776533 C49.0700204,447.87647 48.9126908,447.925652 48.7553612,447.925652 C48.5965465,447.925652 48.4377318,447.874985 48.3042506,447.773563 C48.0388606,447.572203 47.9397106,447.218842 48.0612239,446.908635 L52.5831621,435.352004 C52.7017053,435.049223 53.0022127,434.847951 53.3272674,434.880011 L59.1808729,435.269976 C63.5267871,428.54929 68.8100399,424.462699 73.7726058,422 L87,435.22752 Z M58.1027151,454.807425 C58.2914058,454.063313 58.2220445,453.303564 57.9155094,452.64576 C57.62994,452.807547 57.3443706,452.968634 57.0588011,453.130421 C56.6762656,453.346718 56.2400931,453.615867 55.8285551,453.281811 C55.3685341,452.907571 55.6093769,452.401334 55.8390379,451.989006 C56.0075492,451.686311 56.1760605,451.382831 56.3445718,451.080137 C55.9330339,450.890833 55.4827095,450.792381 55.0212034,450.792381 C54.7468157,450.792381 54.4686716,450.826712 54.1920999,450.896773 C53.1401491,451.163651 52.2804707,451.880944 51.8331165,452.86363 L48.2476434,460.751938 L56.1358764,457.166431 C57.1185532,456.719073 57.83584,455.859474 58.1027151,454.807425 Z M57.7433291,437.649161 C57.9193531,437.3338 58.0923196,437.013197 58.2748954,436.70465 L53.7738355,436.40414 L50.4052693,445.011227 L52.3280802,443.569214 C52.4980765,443.441672 52.7142847,443.392489 52.9215824,443.434246 L54.821331,443.813728 C54.9809319,443.409611 55.1509283,443.015978 55.3186534,442.619287 C55.3998952,442.426925 55.4782543,442.227138 55.5609812,442.037747 C55.851792,441.373392 56.1529983,440.71952 56.4653863,440.078315 C56.5451431,439.913559 56.6294424,439.759198 56.7106842,439.597411 C56.9544971,439.109781 57.2027652,438.626606 57.4592448,438.153914 C57.5524545,437.98243 57.6486343,437.817674 57.7433291,437.649161 Z M58.3107116,450.614258 L66.8774451,445.430893 L66.8774451,442.122746 L63.0391613,442.122746 L59.486447,448.572099 C59.4611135,448.617612 59.4178719,448.645916 59.3843269,448.684703 L58.3107116,450.614258 Z M63.9883805,458.594292 L72.5955601,455.22648 L72.2958389,450.725377 C71.9849359,450.908828 71.6612789,451.083282 71.3429507,451.26219 C71.1774096,451.354702 71.0163236,451.448611 70.8485985,451.540337 C70.3691843,451.800575 69.8785884,452.052602 69.3827511,452.300873 C69.2291779,452.37766 69.0815448,452.458116 68.9257003,452.534205 C68.28223,452.848081 67.6261803,453.150076 66.9588616,453.441589 C66.7768974,453.520647 66.5853239,453.59595 66.4003895,453.674222 C65.9970631,453.844919 65.5967068,454.017887 65.1858677,454.18046 L65.5653457,456.077955 C65.606316,456.285954 65.557833,456.501465 65.4303794,456.671463 L63.9883805,458.594292 Z M74.381046,441.045364 C76.0272852,441.045364 77.6742232,440.41901 78.9276188,439.164991 C81.4350215,436.657564 81.4350215,432.578487 78.9276188,430.07106 C76.4210024,427.563634 72.341177,427.563634 69.8337744,430.07106 C67.3263717,432.578487 67.3263717,436.657564 69.8337744,439.164991 C71.0877815,440.419097 72.7348068,441.045364 74.381046,441.045364 Z" id="Combined-Shape"></path>
        </g>
    </g>
</svg>