<svg width="500" height="500" viewBox="0 0 500 500" fill="none" xmlns="http://www.w3.org/2000/svg">
<path d="M94.3717 113.574C124.948 113.574 149.735 88.7868 149.735 58.2103C149.735 27.6338 124.948 2.84668 94.3717 2.84668C63.7952 2.84668 39.0081 27.6338 39.0081 58.2103C39.0081 88.7868 63.7952 113.574 94.3717 113.574Z" fill="white"/>
<path d="M405.634 2.84668C436.213 2.84668 460.994 27.6346 460.994 58.2103C460.994 88.7859 436.213 113.573 405.634 113.573C375.055 113.573 350.268 88.785 350.268 58.2103C350.268 27.6356 375.055 2.84668 405.634 2.84668Z" fill="white"/>
<path d="M447.178 107.782C436.279 117.96 421.691 124.239 405.633 124.239C389.568 124.239 374.986 117.954 364.087 107.782C340.48 114.013 321.705 132.123 314.495 155.289C294.099 151.53 272.437 149.493 250.001 149.493C227.564 149.493 205.905 151.53 185.509 155.289C178.301 132.123 159.517 114.013 135.92 107.782C125.015 117.954 110.433 124.233 94.3708 124.233C78.3114 124.233 63.7269 117.954 52.8255 107.782C22.4719 115.801 0 143.413 0 176.244V233.708L0.144211 234.597L4.10809 235.836C16.4622 239.694 28.2231 242.632 39.4687 244.931C34.2857 256.044 31.4563 267.739 31.4563 279.82C31.4563 331.997 83.1598 377.084 157.592 397.882C154.844 405.418 153.319 413.532 153.319 422.012V479.475L153.467 480.373L157.428 481.612C194.722 493.262 227.133 497.154 253.812 497.154C305.909 497.154 336.102 482.294 337.965 481.351L341.671 479.476H342.063V422.013C342.063 413.954 340.699 406.226 338.21 399.015C414.891 378.756 468.547 332.965 468.547 279.821C468.547 268.307 466.002 257.152 461.284 246.52C482.685 242.094 494.744 236.169 495.898 235.581L499.608 233.703L500 233.709V176.245C500.006 143.413 477.536 115.801 447.178 107.782ZM453.447 279.82C453.447 326.895 403.309 367.451 331.713 385.313C322.286 369.878 307.165 358.281 289.247 353.559C278.342 363.73 263.754 370.003 247.698 370.003C231.644 370.003 217.054 363.73 206.15 353.559C188.63 358.185 173.767 369.367 164.305 384.29C94.8428 365.934 46.5638 326.014 46.5638 279.82C46.5638 268.67 49.425 257.901 54.6647 247.702C71.3893 250.304 86.7151 251.378 100.49 251.378C152.586 251.378 182.784 236.524 184.644 235.58L188.349 233.702L188.747 233.708V176.239C188.747 174.137 188.647 172.049 188.467 169.994C207.893 166.491 228.561 164.59 250.003 164.59C271.45 164.59 292.124 166.491 311.547 169.994C311.366 172.054 311.263 174.137 311.263 176.245V233.709L311.41 234.604L315.377 235.843C352.666 247.486 385.08 251.379 411.749 251.379C424.547 251.379 435.997 250.487 446.055 249.112C450.838 258.895 453.447 269.181 453.447 279.82Z" fill="white"/>
<path d="M247.698 359.343C278.273 359.343 303.059 334.557 303.059 303.983C303.059 273.408 278.273 248.622 247.698 248.622C217.123 248.622 192.337 273.408 192.337 303.983C192.337 334.557 217.123 359.343 247.698 359.343Z" fill="white"/>
</svg>
