<?xml version="1.0" encoding="UTF-8"?>
<svg width="49px" height="48px" viewBox="0 0 49 48" version="1.1" xmlns="http://www.w3.org/2000/svg" xmlns:xlink="http://www.w3.org/1999/xlink">
    <!-- Generator: Sketch 53.2 (72643) - https://sketchapp.com -->
    <title>Shape</title>
    <desc>Created with Sketch.</desc>
    <g id="Page-1" stroke="none" stroke-width="1" fill="none" fill-rule="evenodd">
        <g id="Custom-Preset-Copy-3" transform="translate(-38.000000, -588.000000)" fill="#FFFFFF" fill-rule="nonzero">
            <path d="M75.641983,613.504015 C70.3869095,613.504015 65.9550323,617.056636 64.6641617,621.863929 L59.4733887,618.522703 C60.2674255,616.987775 60.7160339,615.249597 60.7160339,613.409979 C60.7160339,611.7551 60.3530349,610.18278 59.702179,608.766693 L66.0933533,605.332171 C68.1173248,608.436827 71.6411438,610.495985 75.641983,610.495985 C81.9049301,610.495985 87,605.450271 87,599.247993 C87,593.046085 81.9049301,588 75.641983,588 C69.3794097,588 64.2839661,593.045714 64.2839661,599.247993 C64.2839661,600.468975 64.4824753,601.645161 64.8473435,602.746932 L58.1772842,606.331022 C56.0931244,603.789469 52.9139863,602.161986 49.358017,602.161986 C43.0950699,602.161986 38,607.207701 38,613.409979 C38,619.611887 43.0950699,624.657601 49.358017,624.657601 C52.7266922,624.657601 55.757042,623.197088 57.8389587,620.882479 L64.2877045,625.033744 C64.4394836,631.106075 69.4743652,636 75.641983,636 C81.9049301,636 87,630.953915 87,624.752007 C87,618.549729 81.9049301,613.504015 75.641983,613.504015 Z M70,602.624796 C70,600.704912 71.073484,599.021751 72.6742669,598.098061 C72.3067441,597.576038 72.0918207,596.947073 72.0918207,596.270981 C72.0918207,594.467464 73.6208365,593 75.5,593 C77.3791635,593 78.9081793,594.467464 78.9081793,596.270981 C78.9081793,596.947073 78.6932559,597.576038 78.3257331,598.098061 C79.926516,599.021751 81,600.704912 81,602.624796 L81,603.599239 C81,604.372848 80.3465421,605 79.5404849,605 L71.4595151,605 C70.6534579,605 70,604.372848 70,603.599239 L70,602.624796 Z M44,617.600718 L44,616.605215 C44,614.629779 45.1026377,612.901681 46.7383904,611.971723 C46.399203,611.466548 46.2011889,610.863597 46.2011889,610.215741 C46.2011889,608.442738 47.6809078,607 49.5001858,607 C51.3190923,607 52.7991828,608.442738 52.7991828,610.215741 C52.7991828,610.863597 52.6007971,611.466548 52.2616097,611.971723 C53.8977339,612.901681 55,614.629779 55,616.605215 L55,617.600718 C55,618.37351 54.3572901,619 53.5644905,619 L45.4355095,619 C44.64271,619 44,618.37351 44,617.600718 Z M70,628.588235 L70,627.606138 C70,625.689441 71.0534648,624.006942 72.629318,623.07015 C72.2897466,622.557545 72.0918207,621.949214 72.0918207,621.296675 C72.0918207,619.478992 73.6208365,618 75.5,618 C77.3791635,618 78.9081793,619.478992 78.9081793,621.296675 C78.9081793,621.949214 78.7102534,622.557545 78.3706819,623.07015 C79.9465353,624.006942 81,625.689441 81,627.606138 L81,628.588235 C81,629.367921 80.3465421,630 79.5404849,630 L71.4595151,630 C70.6534579,630 70,629.367921 70,628.588235 Z" id="Shape"></path>
        </g>
    </g>
</svg>