<svg width="500" height="500" viewBox="0 0 500 500" fill="none" xmlns="http://www.w3.org/2000/svg">
<path d="M436.579 58.431L255.18 0.804781C251.811 -0.267609 248.188 -0.267609 244.818 0.804781L63.4208 58.431C56.3148 60.6869 51.4882 67.2846 51.4882 74.7408V301.488C51.4882 348.835 84.3855 396.655 149.266 443.618C195.513 477.096 241.087 497.647 243.007 498.505C245.231 499.502 247.614 499.998 249.998 499.998C252.382 499.998 254.766 499.5 256.99 498.505C258.909 497.647 304.483 477.096 350.731 443.618C415.611 396.653 448.508 348.833 448.508 301.488V74.7408C448.512 67.2846 443.685 60.6869 436.579 58.431ZM414.286 301.488C414.286 371.113 301.69 439.36 249.993 464.029C198.295 439.402 85.7138 371.232 85.7138 301.488V87.2593L250 35.0691L414.286 87.2593V301.488Z" fill="white"/>
<path d="M232.887 122.951V151.387C205.857 153.62 183.779 176.571 183.779 203.508C183.779 231.869 208.242 255.827 237.197 255.827H262.8C272.845 255.827 281.995 264.451 281.995 273.921C281.995 283.387 272.845 292.008 262.8 292.008H200.892C191.441 292.008 183.779 299.67 183.779 309.121C183.779 318.572 191.441 326.234 200.892 326.234H232.887V352.497C232.887 361.948 240.549 369.609 250 369.609C259.451 369.609 267.113 361.948 267.113 352.497V326.039C294.143 323.805 316.221 300.855 316.221 273.919C316.221 245.559 291.756 221.599 262.8 221.599H237.197C227.153 221.599 218.005 212.976 218.005 203.507C218.005 194.039 227.153 185.418 237.197 185.418H299.108C308.559 185.418 316.221 177.756 316.221 168.305C316.221 158.854 308.559 151.192 299.108 151.192H267.113V122.951C267.113 113.5 259.451 105.838 250 105.838C240.549 105.838 232.887 113.5 232.887 122.951Z" fill="white"/>
</svg>
