<svg width="500" height="500" viewBox="0 0 500 500" fill="none" xmlns="http://www.w3.org/2000/svg">
<path d="M260.871 230.395V223.886C281.114 218.522 296.082 200.025 296.082 178.087C296.082 156.149 281.114 137.651 260.871 132.289V88.7483C269.882 92.5519 277.881 99.2823 281.013 102.481C285.813 107.421 293.712 107.544 298.669 102.752C303.63 97.9522 303.762 90.0367 298.962 85.0764C296.955 83.003 281.309 67.3871 260.871 62.4602V56.0315C260.871 49.1261 255.276 43.5308 248.371 43.5308C241.465 43.5308 235.87 49.1261 235.87 56.0315V62.7852C216.066 68.4355 201.515 86.7132 201.515 108.349C201.515 129.981 216.067 148.257 235.87 153.905V196.329C227.246 191.481 219.281 183.654 216.279 180.155C211.802 174.9 203.92 174.262 198.656 178.737C193.399 183.212 192.764 191.101 197.238 196.359C199.343 198.83 215.537 217.232 235.87 223.421V230.393C235.87 237.298 241.465 242.894 248.371 242.894C255.276 242.895 260.871 237.298 260.871 230.395ZM271.08 178.087C271.08 185.952 267.005 192.869 260.871 196.859V159.316C267.005 163.306 271.08 170.221 271.08 178.087ZM226.516 108.349C226.516 100.852 230.22 94.2203 235.87 90.1567V126.534C230.22 122.474 226.516 115.843 226.516 108.349Z" fill="white"/>
<path d="M235.87 419.3V487.499C235.87 494.403 241.465 500 248.371 500C255.276 500 260.871 494.403 260.871 487.499V473.1H342.906H342.913H342.914C379.46 473.1 409.201 443.357 409.203 406.803V353.003C409.203 346.1 403.608 340.503 396.702 340.503L342.911 340.499C306.356 340.499 276.617 370.241 276.617 406.798L276.621 448.099H260.873V284.216C333.386 277.847 390.462 216.694 390.462 142.398C390.46 63.8786 326.72 0 248.371 0C170.018 0 106.274 63.8786 106.274 142.398C106.274 216.694 163.354 277.847 235.87 284.216V394.299H223.379V353.003C223.381 316.445 193.644 286.701 157.091 286.7L103.297 286.698C99.9823 286.698 96.8038 288.015 94.4586 290.358C92.1135 292.703 90.7968 295.882 90.7968 299.199V352.997C90.7968 389.559 120.537 419.302 157.091 419.302L235.87 419.3ZM157.091 394.299C134.321 394.299 115.798 375.77 115.798 352.995V311.698L157.091 311.699C179.857 311.701 198.38 330.229 198.378 353.002V394.299H157.091V394.299ZM131.276 142.398C131.276 77.6661 183.805 25.0014 248.371 25.0014C312.933 25.0014 365.459 77.6661 365.459 142.398C365.459 207.132 312.933 259.798 248.371 259.798C183.805 259.796 131.276 207.13 131.276 142.398ZM384.202 406.8C384.198 429.571 365.677 448.097 342.914 448.097H342.908L301.622 448.094L301.619 406.796C301.619 384.025 320.141 365.499 342.911 365.499L384.202 365.502V406.8Z" fill="white"/>
</svg>
